<svg width="175" height="150" viewBox="0 0 175 150" fill="none" xmlns="http://www.w3.org/2000/svg">
<path d="M145.798 125.157C152.161 125.155 158.346 123.061 163.401 119.197C168.456 115.333 172.099 109.913 173.769 103.773C175.439 97.6339 175.044 91.1154 172.643 85.223C170.243 79.3306 165.971 74.3914 160.486 71.1669L159.906 70.827L159.836 70.1571C159.111 63.0172 155.757 56.4018 150.426 51.5973C145.095 46.7928 138.168 44.1426 130.991 44.1619C130.601 44.1619 130.221 44.1619 129.841 44.1619L128.532 44.2519L128.412 42.9421C127.786 35.9476 124.643 29.4179 119.566 24.5657C114.489 19.7136 107.824 16.8688 100.808 16.5597C93.7927 16.2507 86.9032 18.4983 81.4195 22.8852C75.9358 27.2721 72.2307 33.5002 70.9922 40.4126L70.7422 41.7723L69.4024 41.4924C67.4615 41.0918 65.4853 40.8874 63.5035 40.8825C56.4807 40.8806 49.696 43.4275 44.4093 48.0503C39.1227 52.6732 35.6935 59.0576 34.7588 66.0179L34.6189 67.0877L33.549 67.1777C26.0704 67.7675 19.1116 71.2331 14.1345 76.8461C9.15745 82.4591 6.54966 89.7827 6.85901 97.2782C7.16835 104.774 10.3707 111.857 15.7934 117.041C21.2161 122.225 28.4368 125.105 35.9386 125.077L145.798 125.157ZM35.9386 122.327C28.9981 122.322 22.3434 119.563 17.4358 114.655C12.5281 109.747 9.76867 103.093 9.76338 96.1523C9.77926 89.2127 12.5473 82.5627 17.46 77.6612C22.3727 72.7598 29.029 70.0071 35.9686 70.0071C36.3316 70.005 36.68 69.8639 36.9422 69.6129C37.2044 69.3619 37.3604 69.0199 37.3783 68.6574C37.7147 61.951 40.6184 55.6312 45.4877 51.0075C50.3571 46.3839 56.8187 43.811 63.5335 43.822C66.2741 43.815 68.9981 44.2471 71.6021 45.1017C71.8051 45.1668 72.0202 45.1853 72.2314 45.1559C72.4425 45.1265 72.6443 45.0499 72.8218 44.9318C73.0036 44.8156 73.1554 44.6582 73.2649 44.4723C73.3743 44.2864 73.4384 44.0773 73.4517 43.862C73.911 37.0916 76.9826 30.7644 82.0184 26.2158C87.0542 21.6672 93.6602 19.2529 100.442 19.4825C107.224 19.7121 113.652 22.5677 118.368 27.4465C123.085 32.3253 125.722 38.8457 125.722 45.6316V45.9016C125.724 46.1042 125.769 46.3042 125.854 46.4884C125.938 46.6727 126.06 46.8372 126.212 46.9714C126.361 47.0991 126.534 47.1945 126.722 47.2513C126.91 47.3081 127.107 47.3251 127.302 47.3013C130.893 46.7992 134.548 47.0474 138.038 48.0302C141.528 49.013 144.776 50.7091 147.577 53.0112C150.378 55.3133 152.671 58.1713 154.312 61.4048C155.952 64.6383 156.903 68.1768 157.106 71.7968C157.121 72.0382 157.198 72.2717 157.329 72.4748C157.461 72.6779 157.642 72.8438 157.856 72.9566C163.052 75.6529 167.194 80.0146 169.618 85.3434C172.041 90.6722 172.607 96.6601 171.225 102.349C169.843 108.037 166.592 113.098 161.993 116.72C157.394 120.342 151.712 122.317 145.858 122.327H35.9386Z" fill="#5A5A5A"/>
<path d="M61.4638 2.17961C61.4907 1.99703 61.4811 1.81094 61.4358 1.63205C61.3904 1.45317 61.3102 1.285 61.1996 1.13726C61.089 0.98951 60.9503 0.865098 60.7915 0.771159C60.6326 0.67722 60.4567 0.615621 60.274 0.589903C57.6726 0.200022 55.0459 0.00284379 52.4155 0C39.6999 0.039729 27.4202 4.63763 17.8055 12.959C8.19085 21.2803 1.87871 32.7734 0.0150903 45.3516C-0.0118378 45.5335 -0.00265501 45.7189 0.0420629 45.8972C0.0867808 46.0755 0.16623 46.2432 0.275784 46.3909C0.385339 46.5385 0.522907 46.6631 0.680617 46.7575C0.838328 46.852 1.01307 46.9144 1.19493 46.9413H1.41486C1.75132 46.941 2.07678 46.8213 2.33314 46.6034C2.58951 46.3855 2.76013 46.0836 2.81462 45.7516C4.76912 32.5666 11.8749 20.6957 22.5725 12.7442C33.27 4.79273 46.6853 1.41034 59.8741 3.3394C60.0548 3.36923 60.2397 3.36279 60.4179 3.32043C60.5961 3.27808 60.7641 3.20066 60.9121 3.09271C61.06 2.98475 61.1851 2.84841 61.2798 2.69164C61.3745 2.53487 61.4371 2.36081 61.4638 2.17961Z" fill="#80C242"/>
<path d="M30.4596 23.4057C34.3545 20.4891 38.7892 18.3741 43.507 17.1831C48.2248 15.9921 53.132 15.7487 57.9445 16.4669C58.3145 16.5101 58.6868 16.4082 58.9833 16.1826C59.2797 15.957 59.4772 15.6253 59.5342 15.2572C59.5611 15.0753 59.5519 14.89 59.5072 14.7116C59.4625 14.5333 59.3832 14.3656 59.2736 14.218C59.1641 14.0703 59.0265 13.9458 58.8688 13.8513C58.7111 13.7568 58.5363 13.6944 58.3545 13.6675C56.4113 13.3809 54.4498 13.2372 52.4856 13.2375C42.932 13.2643 33.705 16.7179 26.4817 22.9706C19.2584 29.2233 14.5184 37.8601 13.1228 47.3113C13.0712 47.6781 13.1659 48.0506 13.3867 48.348C13.6075 48.6455 13.9365 48.8442 14.3025 48.901C14.3756 48.91 14.4494 48.91 14.5225 48.901C14.8595 48.9027 15.1861 48.7837 15.4428 48.5654C15.6996 48.3471 15.8697 48.0441 15.9222 47.7112C16.617 42.8996 18.2597 38.2737 20.7551 34.1015C23.2505 29.9293 26.549 26.2938 30.4596 23.4057Z" fill="#80C242"/>
<path d="M38.3281 33.9838C40.8355 32.1086 43.6892 30.7484 46.7248 29.9813C49.7604 29.2143 52.9177 29.0556 56.0148 29.5146C56.3821 29.5689 56.7559 29.4752 57.0541 29.2539C57.3522 29.0327 57.5503 28.7021 57.6046 28.3348C57.659 27.9675 57.5652 27.5937 57.3439 27.2956C57.1227 26.9975 56.792 26.7994 56.4248 26.7451C52.9632 26.2267 49.433 26.4017 46.0396 27.2599C42.6462 28.1181 39.4574 29.6424 36.6584 31.7442C33.8457 33.8295 31.4736 36.451 29.6787 39.4573C27.8838 42.4637 26.7016 45.7956 26.2004 49.2609C26.1487 49.6278 26.2435 50.0002 26.4642 50.2977C26.685 50.5952 27.014 50.7938 27.3801 50.8506C27.4531 50.8597 27.5271 50.8597 27.6001 50.8506C27.9372 50.8524 28.2636 50.7333 28.5204 50.5151C28.7772 50.2968 28.9473 49.9938 28.9999 49.6609C29.4435 46.5615 30.496 43.5806 32.097 40.8899C33.698 38.1993 35.8158 35.8521 38.3281 33.9838Z" fill="#80C242"/>
<path d="M89.4587 131.826L88.4589 132.096C86.939 132.512 85.5538 133.317 84.4404 134.432C83.3269 135.547 82.5238 136.934 82.1101 138.454L81.8401 139.454H37.3383C36.9644 139.454 36.6058 139.603 36.3414 139.867C36.0771 140.132 35.9286 140.49 35.9286 140.864C35.9286 141.238 36.0771 141.596 36.3414 141.861C36.6058 142.125 36.9644 142.274 37.3383 142.274H81.8401L82.1101 143.274C82.6277 145.203 83.7675 146.909 85.3528 148.125C86.9381 149.341 88.8803 150 90.8784 150C92.8764 150 94.8188 149.341 96.4041 148.125C97.9894 146.909 99.1292 145.203 99.6468 143.274L99.9168 142.274H144.389C144.762 142.274 145.121 142.125 145.385 141.861C145.65 141.596 145.798 141.238 145.798 140.864C145.798 140.49 145.65 140.132 145.385 139.867C145.121 139.603 144.762 139.454 144.389 139.454H99.9268L99.6468 138.454C99.2266 136.929 98.4165 135.54 97.2963 134.423C96.176 133.307 94.7842 132.501 93.258 132.086L92.2581 131.816V125.147H89.4287L89.4587 131.826ZM95.2876 136.365C95.8845 136.943 96.3608 137.634 96.6886 138.398C97.0164 139.162 97.1893 139.983 97.1973 140.814V140.884C97.1868 142.558 96.5163 144.161 95.3314 145.344C94.1465 146.527 92.5427 147.195 90.8684 147.203C90.0208 147.237 89.1751 147.099 88.382 146.798C87.589 146.497 86.8648 146.039 86.2531 145.451C85.6415 144.863 85.1549 144.158 84.8225 143.377C84.4901 142.597 84.3187 141.757 84.3187 140.909C84.3187 140.061 84.4901 139.221 84.8225 138.441C85.1549 137.66 85.6415 136.955 86.2531 136.367C86.8648 135.779 87.589 135.321 88.382 135.02C89.1751 134.719 90.0208 134.581 90.8684 134.615C91.6842 134.599 92.4952 134.745 93.2539 135.046C94.0126 135.346 94.704 135.794 95.2876 136.365Z" fill="#888888"/>
<path d="M90.8585 89.0337C89.8496 89.0317 88.8627 89.3291 88.0228 89.8882C87.183 90.4473 86.5278 91.2429 86.1403 92.1745C85.7529 93.1061 85.6505 94.1316 85.8461 95.1214C86.0417 96.1112 86.5266 97.0207 87.2393 97.7348C87.952 98.4489 88.8606 98.9355 89.85 99.1331C90.8394 99.3307 91.8651 99.2303 92.7974 98.8446C93.7298 98.459 94.5267 97.8054 95.0874 96.9667C95.6482 96.1279 95.9475 95.1417 95.9475 94.1328C95.9449 92.783 95.4081 91.489 94.4546 90.5336C93.5011 89.5782 92.2083 89.039 90.8585 89.0337ZM90.8585 96.1824C90.4484 96.1943 90.0439 96.0835 89.6972 95.8641C89.3505 95.6448 89.0771 95.3268 88.9123 94.9511C88.7475 94.5754 88.6987 94.159 88.7721 93.7553C88.8454 93.3516 89.0377 92.979 89.3242 92.6854C89.6107 92.3917 89.9784 92.1903 90.3802 92.1069C90.7819 92.0236 91.1994 92.0622 91.579 92.2177C91.9587 92.3732 92.2834 92.6386 92.5112 92.9798C92.7391 93.321 92.8599 93.7225 92.8581 94.1328C92.8557 94.667 92.6457 95.1795 92.2726 95.5619C91.8995 95.9443 91.3925 96.1668 90.8585 96.1824Z" fill="#888888"/>
<path d="M90.8585 53.2603C87.1461 53.2603 83.5858 54.735 80.9608 57.36C78.3358 59.985 76.8611 63.5453 76.8611 67.2577V78.2556H74.8014C73.9263 78.2556 73.0871 78.6033 72.4683 79.222C71.8496 79.8408 71.502 80.68 71.502 81.555V103.001C71.5019 103.877 71.8492 104.717 72.4677 105.338C73.0862 105.958 73.9254 106.308 74.8014 106.31H106.976C107.851 106.308 108.691 105.958 109.309 105.338C109.928 104.717 110.275 103.877 110.275 103.001V81.615C110.275 80.74 109.927 79.9008 109.308 79.282C108.69 78.6632 107.851 78.3156 106.976 78.3156H79.9004V67.3177C79.9004 64.4008 81.0591 61.6034 83.1216 59.5409C85.1842 57.4784 87.9816 56.3197 90.8984 56.3197C93.8152 56.3197 96.6126 57.4784 98.6752 59.5409C100.738 61.6034 101.896 64.4008 101.896 67.3177V68.7474C101.955 69.1031 102.138 69.4265 102.412 69.6599C102.687 69.8933 103.036 70.0214 103.396 70.0214C103.757 70.0214 104.105 69.8933 104.38 69.6599C104.655 69.4265 104.838 69.1031 104.896 68.7474V67.3177C104.904 65.4711 104.546 63.6412 103.844 61.9334C103.141 60.2256 102.108 58.6737 100.803 57.367C99.4985 56.0603 97.948 55.0247 96.2412 54.3199C94.5344 53.6151 92.7051 53.255 90.8585 53.2603ZM107.205 81.3251V103.321H74.5014V81.3251H107.205Z" fill="#93D554"/>
</svg>
