<svg width="159" height="150" viewBox="0 0 159 150" fill="none" xmlns="http://www.w3.org/2000/svg">
<path d="M28.2046 42.562H17.4948C15.4574 42.5653 13.5044 43.3761 12.0638 44.8168C10.6231 46.2574 9.8123 48.2104 9.80897 50.2478V135.743H4.89504C3.99636 135.733 3.11324 135.978 2.34825 136.45C1.58326 136.922 0.967808 137.601 0.57333 138.408C0.201023 139.176 0.0542986 140.033 0.150211 140.881C0.246124 141.728 0.580721 142.531 1.11511 143.196L5.07145 148.192C5.526 148.757 6.10156 149.213 6.75577 149.526C7.40999 149.839 8.12617 150.001 8.85137 150H142.497C143.222 150.001 143.938 149.839 144.593 149.526C145.247 149.213 145.823 148.757 146.277 148.192L150.239 143.196C150.773 142.531 151.106 141.727 151.201 140.88C151.296 140.032 151.148 139.175 150.775 138.408C150.381 137.6 149.766 136.921 149.001 136.449C148.235 135.977 147.352 135.732 146.453 135.743H141.508L141.407 128.234C141.42 128.045 141.394 127.856 141.33 127.678C141.267 127.5 141.168 127.337 141.038 127.199C140.909 127.061 140.753 126.95 140.58 126.875C140.407 126.8 140.22 126.761 140.031 126.761C139.841 126.761 139.654 126.8 139.481 126.875C139.308 126.95 139.152 127.061 139.023 127.199C138.893 127.337 138.794 127.5 138.731 127.678C138.667 127.856 138.641 128.045 138.654 128.234L138.755 135.75H12.5935V50.2478C12.5951 48.94 13.1154 47.6863 14.0401 46.7616C14.9648 45.8369 16.2186 45.3167 17.5263 45.315H28.2361C28.5851 45.2914 28.912 45.1361 29.1509 44.8805C29.3897 44.625 29.5225 44.2883 29.5225 43.9385C29.5225 43.5887 29.3897 43.252 29.1509 42.9964C28.912 42.7409 28.5851 42.5856 28.2361 42.562H28.2046ZM146.422 138.496C146.803 138.487 147.179 138.586 147.506 138.783C147.833 138.979 148.097 139.264 148.268 139.605C148.421 139.907 148.482 140.247 148.443 140.583C148.403 140.92 148.266 141.237 148.047 141.495L144.091 146.491C143.894 146.731 143.646 146.925 143.365 147.057C143.083 147.188 142.776 147.256 142.465 147.253H8.84507C8.5344 147.256 8.22712 147.188 7.94584 147.057C7.66457 146.925 7.4164 146.731 7.21965 146.491L3.26339 141.495C3.04622 141.236 2.9096 140.919 2.87042 140.583C2.83124 140.247 2.89123 139.907 3.04291 139.605C3.21491 139.265 3.47937 138.981 3.80594 138.785C4.13251 138.589 4.50785 138.489 4.88873 138.496H146.422Z" fill="#5A5A5A"/>
<path d="M158.436 33.572L155.916 28.5321L156.835 26.7115C156.981 26.4152 157.004 26.0737 156.901 25.7603C156.797 25.4469 156.574 25.1868 156.281 25.0357L155.153 24.4687L156.123 22.5788C156.269 22.2878 156.354 21.9706 156.375 21.6459C156.395 21.3213 156.351 20.9958 156.243 20.6888C156.024 20.0703 155.572 19.5617 154.983 19.2713L152.608 18.0681C152.023 17.7715 151.345 17.7149 150.718 17.9106C150.404 18.0044 150.113 18.1612 149.862 18.3713C149.61 18.5814 149.405 18.8405 149.257 19.1327L148.293 21.0227L147.165 20.4494C146.869 20.3039 146.527 20.2805 146.214 20.3841C145.901 20.4878 145.64 20.7103 145.489 21.0038L132.152 47.3877C132.045 47.6042 132.002 47.847 132.029 48.0871C132.056 48.3273 132.151 48.5546 132.304 48.7421L132.436 48.8996L132.341 49.0886L113.543 86.2894L113.492 86.4595L110.462 101.693C110.42 101.956 110.462 102.227 110.584 102.465C110.705 102.703 110.899 102.896 111.137 103.017C111.376 103.137 111.646 103.179 111.91 103.136C112.173 103.092 112.417 102.967 112.604 102.776L123.024 91.386L123.131 91.2537C123.181 91.1781 123.2 91.1403 123.219 91.1088L142.075 53.8009H142.283C142.436 53.8141 142.591 53.7948 142.736 53.7442C142.893 53.6924 143.039 53.6101 143.164 53.502C143.29 53.3939 143.393 53.2621 143.467 53.1143L154.498 31.2789L155.922 34.1327L147.373 51.0668C147.298 51.2126 147.254 51.372 147.242 51.5354C147.23 51.6988 147.251 51.863 147.304 52.0181C147.41 52.3332 147.636 52.5937 147.934 52.7426C148.229 52.8885 148.57 52.9129 148.883 52.8105C149.197 52.708 149.457 52.4869 149.609 52.1945L158.429 34.7249C158.522 34.5471 158.571 34.3498 158.572 34.1493C158.573 33.9487 158.526 33.7508 158.436 33.572ZM151.506 20.2226L153.893 21.4322L152.942 23.3222L150.554 22.1126L151.506 20.2226ZM141.804 50.9156L141.596 50.8778H141.413C141.345 50.8825 141.277 50.8952 141.212 50.9156C141.147 50.9324 141.083 50.9556 141.023 50.9849C140.959 51.0142 140.898 51.0478 140.84 51.0857C140.787 51.1217 140.736 51.1617 140.689 51.2054C140.639 51.2543 140.592 51.3069 140.55 51.3629L140.393 51.6212L121.109 89.7795L113.801 97.7867L115.634 88.5636L118.343 89.8803C118.643 90.0216 118.986 90.0393 119.298 89.9297C119.61 89.8201 119.867 89.5919 120.013 89.2944C120.152 88.9964 120.17 88.6556 120.062 88.3448C119.953 88.0339 119.728 87.7779 119.433 87.6313L116.409 86.1697L134.679 50.021L137.74 51.5015C138.038 51.6442 138.379 51.6646 138.692 51.5582C138.846 51.5061 138.989 51.4234 139.111 51.3152C139.234 51.207 139.333 51.0754 139.404 50.9282C139.546 50.6308 139.567 50.2892 139.46 49.9769C139.408 49.8222 139.326 49.6795 139.217 49.5572C139.109 49.4349 138.978 49.3356 138.83 49.265L134.968 47.3751L147.197 23.1773L154.063 26.6485L141.804 50.9156Z" fill="#80C242"/>
<path d="M45.9198 116.529C45.9198 116.891 46.0638 117.239 46.3202 117.495C46.5766 117.752 46.9243 117.896 47.2869 117.896H131.957C132.32 117.896 132.669 117.752 132.926 117.496C133.183 117.24 133.329 116.892 133.331 116.529V83.9521C133.307 83.6048 133.152 83.2793 132.898 83.0416C132.644 82.8039 132.308 82.6717 131.96 82.6717C131.612 82.6717 131.277 82.8039 131.023 83.0416C130.768 83.2793 130.614 83.6048 130.59 83.9521V115.155H48.6539V2.80344H102.833V28.299C102.834 28.6628 102.98 29.0111 103.237 29.2683C103.494 29.5255 103.842 29.6707 104.206 29.6724H130.603V38.5426C130.59 38.7304 130.616 38.9188 130.679 39.096C130.742 39.2733 130.841 39.4358 130.969 39.5733C131.098 39.7108 131.253 39.8204 131.426 39.8953C131.599 39.9703 131.785 40.009 131.973 40.009C132.161 40.009 132.347 39.9703 132.52 39.8953C132.692 39.8204 132.848 39.7108 132.976 39.5733C133.105 39.4358 133.204 39.2733 133.267 39.096C133.33 38.9188 133.356 38.7304 133.343 38.5426V28.2171C133.348 28.1542 133.348 28.091 133.343 28.0281C133.33 27.9684 133.313 27.9095 133.293 27.8517C133.27 27.7799 133.24 27.7104 133.205 27.6439C133.205 27.5872 133.142 27.543 133.11 27.4927C133.063 27.429 133.01 27.37 132.953 27.3163L105.189 0.447286C105.131 0.390939 105.068 0.340312 105 0.296095L105.12 0L104.943 0.264594L104.792 0.182692H104.723L104.534 0.125996C104.447 0.107631 104.358 0.0970871 104.269 0.0944943H47.3309C46.9684 0.0944943 46.6206 0.238522 46.3643 0.494898C46.1079 0.751274 45.9638 1.099 45.9638 1.46157L45.9198 116.529ZM105.561 4.66821L128.574 26.932H105.561V4.66821Z" fill="#888888"/>
<path d="M74.8992 11.2893H62.2239C62.0361 11.2766 61.8478 11.3026 61.6705 11.3657C61.4932 11.4288 61.3307 11.5276 61.1932 11.6561C61.0557 11.7846 60.9461 11.94 60.8711 12.1126C60.7962 12.2852 60.7575 12.4714 60.7575 12.6596C60.7575 12.8478 60.7962 13.0339 60.8711 13.2065C60.9461 13.3792 61.0557 13.5345 61.1932 13.663C61.3307 13.7915 61.4932 13.8904 61.6705 13.9534C61.8478 14.0165 62.0361 14.0425 62.2239 14.0298H74.8803C75.068 14.0425 75.2565 14.0165 75.4337 13.9534C75.611 13.8904 75.7734 13.7915 75.9109 13.663C76.0484 13.5345 76.158 13.3792 76.233 13.2065C76.3079 13.0339 76.3467 12.8478 76.3467 12.6596C76.3467 12.4714 76.3079 12.2852 76.233 12.1126C76.158 11.94 76.0484 11.7846 75.9109 11.6561C75.7734 11.5276 75.611 11.4288 75.4337 11.3657C75.2565 11.3026 75.068 11.2766 74.8803 11.2893H74.8992Z" fill="#80C242"/>
<path d="M84.349 20.6258H62.2239C62.0361 20.613 61.8478 20.639 61.6705 20.7021C61.4932 20.7652 61.3307 20.8641 61.1932 20.9925C61.0557 21.121 60.9461 21.2764 60.8711 21.449C60.7962 21.6216 60.7575 21.8078 60.7575 21.996C60.7575 22.1842 60.7962 22.3704 60.8711 22.543C60.9461 22.7156 61.0557 22.871 61.1932 22.9995C61.3307 23.1279 61.4932 23.2268 61.6705 23.2899C61.8478 23.353 62.0361 23.379 62.2239 23.3662H84.3301C84.5178 23.379 84.7063 23.353 84.8836 23.2899C85.0609 23.2268 85.2232 23.1279 85.3607 22.9995C85.4982 22.871 85.6079 22.7156 85.6828 22.543C85.7578 22.3704 85.7965 22.1842 85.7965 21.996C85.7965 21.8078 85.7578 21.6216 85.6828 21.449C85.6079 21.2764 85.4982 21.121 85.3607 20.9925C85.2232 20.8641 85.0609 20.7652 84.8836 20.7021C84.7063 20.639 84.5178 20.613 84.3301 20.6258H84.349Z" fill="#80C242"/>
<path d="M84.349 76.2096H62.2239C62.0361 76.1968 61.8478 76.2228 61.6705 76.2859C61.4932 76.349 61.3307 76.4479 61.1932 76.5763C61.0557 76.7048 60.9461 76.8602 60.8711 77.0328C60.7962 77.2054 60.7575 77.3916 60.7575 77.5798C60.7575 77.768 60.7962 77.9542 60.8711 78.1268C60.9461 78.2994 61.0557 78.4547 61.1932 78.5832C61.3307 78.7117 61.4932 78.8106 61.6705 78.8737C61.8478 78.9368 62.0361 78.9628 62.2239 78.95H84.3301C84.5178 78.9628 84.7063 78.9368 84.8836 78.8737C85.0609 78.8106 85.2232 78.7117 85.3607 78.5832C85.4982 78.4547 85.6079 78.2994 85.6828 78.1268C85.7578 77.9542 85.7965 77.768 85.7965 77.5798C85.7965 77.3916 85.7578 77.2054 85.6828 77.0328C85.6079 76.8602 85.4982 76.7048 85.3607 76.5763C85.2232 76.4479 85.0609 76.349 84.8836 76.2859C84.7063 76.2228 84.5178 76.1968 84.3301 76.2096H84.349Z" fill="#888888"/>
<path d="M100.653 40.6279H78.5405C78.1932 40.6514 77.8677 40.806 77.63 41.0604C77.3923 41.3148 77.2601 41.6499 77.2601 41.9981C77.2601 42.3462 77.3923 42.6814 77.63 42.9358C77.8677 43.1902 78.1932 43.3448 78.5405 43.3683H100.653C101 43.3448 101.326 43.1902 101.564 42.9358C101.801 42.6814 101.934 42.3462 101.934 41.9981C101.934 41.6499 101.801 41.3148 101.564 41.0604C101.326 40.806 101 40.6514 100.653 40.6279Z" fill="#888888"/>
<path d="M106.537 110.286C106.765 110.003 106.872 109.641 106.834 109.28C106.797 108.919 106.617 108.587 106.336 108.358C104.735 107.066 102.31 107.161 99.7459 107.262C97.6103 107.344 95.5628 107.369 94.0004 106.852C93.2206 106.614 92.5182 106.173 91.9648 105.574C91.4113 104.975 91.0268 104.24 90.8504 103.444C90.7703 103.186 90.6158 102.957 90.4062 102.786C90.1966 102.615 89.9412 102.51 89.6721 102.484C89.4031 102.458 89.1322 102.512 88.8936 102.639C88.6549 102.766 88.459 102.96 88.3305 103.198C87.5367 104.698 86.5098 105.302 85.2688 104.994C84.2041 104.729 83.6561 104.206 83.5994 102.108C83.59 101.761 83.4486 101.43 83.204 101.183C82.9594 100.936 82.63 100.792 82.2826 100.779C81.928 100.76 81.5803 100.882 81.3149 101.118C81.0495 101.354 80.8879 101.685 80.8652 102.039C80.777 102.965 80.1722 103.778 79.0256 104.521L78.5279 104.842V104.257C78.5279 103.778 78.5279 103.104 78.5279 102.442C78.5541 101.63 78.4843 100.818 78.3201 100.023C78.2654 99.7433 78.1251 99.4875 77.9185 99.2911C77.7119 99.0947 77.4493 98.9674 77.1671 98.9269C76.808 98.8765 76.5371 98.845 76.2914 98.8198C75.6712 98.7732 75.0617 98.633 74.4834 98.404C74.1225 98.2673 73.7847 98.076 73.4817 97.837L73.2802 97.6732L73.4377 97.3708C74.5487 95.0483 75.2865 92.565 75.6237 90.0126L75.6804 89.6913C76.063 88.0752 76.1335 86.401 75.8882 84.7585C75.7715 84.0636 75.4453 83.421 74.9533 82.9166C74.4613 82.4122 73.8269 82.0701 73.1352 81.9361C72.3045 81.8201 71.458 81.9498 70.7002 82.3091C69.9423 82.6685 69.3062 83.2418 68.8703 83.9584C68.0157 85.4718 67.6483 87.2119 67.8181 88.9416C67.9945 92.6837 68.6749 95.6258 69.853 97.6921L69.9538 97.8622L69.8404 98.026C67.711 101.1 64.3469 104.118 59.8425 106.997C59.6791 107.088 59.536 107.212 59.4221 107.36C59.3082 107.509 59.2259 107.679 59.1801 107.86C59.1344 108.042 59.1262 108.231 59.156 108.415C59.1859 108.6 59.2532 108.777 59.3538 108.935C59.4544 109.092 59.5862 109.228 59.741 109.333C59.8959 109.438 60.0706 109.51 60.2544 109.545C60.4383 109.58 60.6273 109.578 60.8099 109.537C60.9926 109.496 61.1651 109.419 61.3167 109.309C65.8022 106.443 69.2671 103.394 71.6107 100.256L71.7933 100.01L72.0453 100.187C72.506 100.514 73.0081 100.779 73.5384 100.974C74.17 101.218 74.8273 101.389 75.4977 101.485L75.7623 101.522V101.787C75.8064 102.902 75.7623 104.414 75.7623 104.786V105.151C75.7623 105.548 75.7623 105.926 75.6993 106.285V106.43L75.4536 106.606C73.677 107.803 72.6943 108.704 72.7951 109.851C72.8239 110.156 72.9345 110.447 73.1152 110.695C73.2959 110.942 73.5401 111.136 73.8219 111.256C74.1063 111.379 74.4129 111.442 74.7228 111.442C75.0327 111.442 75.3393 111.379 75.6237 111.256C77.1798 110.626 77.9988 108.541 78.0051 108.522C78.0492 108.402 78.0932 108.282 78.131 108.156L78.1751 108.03L78.2885 107.967L78.402 107.917C79.5452 107.457 80.6084 106.819 81.5519 106.027L81.7975 105.806L82.0055 106.065C82.6749 106.867 83.5926 107.423 84.6136 107.646C85.3636 107.84 86.1486 107.856 86.9056 107.691C87.6627 107.527 88.3708 107.188 88.9731 106.701L89.2377 106.487L89.4267 106.764C91.89 110.298 96.4952 110.122 99.853 109.989C101.806 109.914 103.822 109.838 104.622 110.481C104.902 110.699 105.255 110.8 105.608 110.762C105.96 110.725 106.285 110.551 106.512 110.279L106.537 110.286ZM72.9336 89.496C72.7078 91.001 72.3645 92.486 71.9068 93.9374L71.5792 94.9139L71.302 93.9248C70.8691 92.235 70.624 90.5025 70.5712 88.7589C70.4403 87.5957 70.6596 86.4199 71.2012 85.3822C71.3501 85.1262 71.5662 84.9158 71.826 84.7737C72.0858 84.6316 72.3795 84.5632 72.6753 84.5758C72.9588 84.6262 73.1415 84.853 73.236 85.2877C73.3898 86.5848 73.3108 87.899 73.0029 89.1684L72.9336 89.496Z" fill="#80C242"/>
<path d="M117.033 52.6606H62.2239C62.0361 52.6479 61.8478 52.6739 61.6705 52.737C61.4932 52.8 61.3307 52.8989 61.1932 53.0274C61.0557 53.1559 60.9461 53.3112 60.8711 53.4839C60.7962 53.6565 60.7575 53.8427 60.7575 54.0308C60.7575 54.219 60.7962 54.4052 60.8711 54.5778C60.9461 54.7504 61.0557 54.9058 61.1932 55.0343C61.3307 55.1628 61.4932 55.2616 61.6705 55.3247C61.8478 55.3878 62.0361 55.4138 62.2239 55.4011H117.033C117.221 55.4138 117.409 55.3878 117.586 55.3247C117.763 55.2616 117.926 55.1628 118.063 55.0343C118.201 54.9058 118.311 54.7504 118.385 54.5778C118.46 54.4052 118.499 54.219 118.499 54.0308C118.499 53.8427 118.46 53.6565 118.385 53.4839C118.311 53.3112 118.201 53.1559 118.063 53.0274C117.926 52.8989 117.763 52.8 117.586 52.737C117.409 52.6739 117.221 52.6479 117.033 52.6606Z" fill="#888888"/>
<path d="M117.033 64.4351H62.2239C62.0361 64.4224 61.8478 64.4483 61.6705 64.5114C61.4932 64.5745 61.3307 64.6734 61.1932 64.8019C61.0557 64.9303 60.9461 65.0857 60.8711 65.2583C60.7962 65.431 60.7575 65.6171 60.7575 65.8053C60.7575 65.9935 60.7962 66.1797 60.8711 66.3523C60.9461 66.5249 61.0557 66.6803 61.1932 66.8088C61.3307 66.9373 61.4932 67.0361 61.6705 67.0992C61.8478 67.1623 62.0361 67.1883 62.2239 67.1755H117.033C117.221 67.1883 117.409 67.1623 117.586 67.0992C117.763 67.0361 117.926 66.9373 118.063 66.8088C118.201 66.6803 118.311 66.5249 118.385 66.3523C118.46 66.1797 118.499 65.9935 118.499 65.8053C118.499 65.6171 118.46 65.431 118.385 65.2583C118.311 65.0857 118.201 64.9303 118.063 64.8019C117.926 64.6734 117.763 64.5745 117.586 64.5114C117.409 64.4483 117.221 64.4224 117.033 64.4351Z" fill="#888888"/>
<path d="M25.9366 0.0756226C25.5729 0.0772797 25.2245 0.222509 24.9673 0.479708C24.7101 0.736907 24.5649 1.08527 24.5632 1.449V12.3037C24.5632 12.6679 24.7079 13.0172 24.9655 13.2748C25.223 13.5324 25.5724 13.677 25.9366 13.677C26.3008 13.677 26.6502 13.5324 26.9077 13.2748C27.1653 13.0172 27.3099 12.6679 27.3099 12.3037V1.449C27.3099 1.08476 27.1653 0.735429 26.9077 0.477872C26.6502 0.220315 26.3008 0.0756226 25.9366 0.0756226Z" fill="#80C242"/>
<path d="M12.2281 27.7194H1.37339C1.00915 27.7194 0.65982 27.8641 0.402263 28.1217C0.144706 28.3792 -1.52588e-05 28.7285 -1.52588e-05 29.0928C-1.52588e-05 29.457 0.144706 29.8064 0.402263 30.0639C0.65982 30.3215 1.00915 30.4662 1.37339 30.4662H12.2281C12.5923 30.4662 12.9416 30.3215 13.1992 30.0639C13.4567 29.8064 13.6014 29.457 13.6014 29.0928C13.6014 28.7285 13.4567 28.3792 13.1992 28.1217C12.9416 27.8641 12.5923 27.7194 12.2281 27.7194Z" fill="#80C242"/>
<path d="M15.8505 16.1403C15.8506 15.9599 15.815 15.7814 15.7458 15.6149C15.6766 15.4484 15.5752 15.2972 15.4473 15.1701L7.76778 7.49683C7.64071 7.36883 7.48956 7.26724 7.32305 7.19792C7.15654 7.12859 6.97794 7.0929 6.79758 7.0929C6.61721 7.0929 6.43861 7.12859 6.2721 7.19792C6.10559 7.26724 5.95444 7.36883 5.82737 7.49683C5.69937 7.6239 5.59778 7.77505 5.52845 7.94156C5.45912 8.10806 5.42348 8.28665 5.42348 8.46701C5.42348 8.64738 5.45912 8.82595 5.52845 8.99246C5.59778 9.15897 5.69937 9.31012 5.82737 9.43719L13.5007 17.1104C13.7623 17.3618 14.1111 17.5023 14.4739 17.5023C14.8368 17.5023 15.1856 17.3618 15.4473 17.1104C15.5752 16.9833 15.6766 16.8321 15.7458 16.6656C15.815 16.4991 15.8506 16.3206 15.8505 16.1403Z" fill="#80C242"/>
</svg>
