<svg width="298" height="120" viewBox="0 0 298 120" fill="none" xmlns="http://www.w3.org/2000/svg">
<g clip-path="url(#clip0_142_86)">
<path d="M267.352 120H259.768C259.46 120 259.165 119.878 258.948 119.66C258.73 119.443 258.608 119.148 258.608 118.84C258.608 118.532 258.73 118.237 258.948 118.02C259.165 117.802 259.46 117.68 259.768 117.68H267.352C269.261 117.68 271.093 116.921 272.443 115.571C273.793 114.221 274.552 112.39 274.552 110.48V107.192H151.424V110.528C151.424 112.438 152.182 114.269 153.533 115.619C154.883 116.969 156.714 117.728 158.624 117.728H240.464C240.772 117.728 241.067 117.85 241.284 118.068C241.502 118.285 241.624 118.58 241.624 118.888C241.624 119.196 241.502 119.491 241.284 119.708C241.067 119.926 240.772 120.048 240.464 120.048H158.624C157.373 120.05 156.134 119.805 154.978 119.328C153.822 118.85 152.772 118.149 151.888 117.264C151.003 116.38 150.302 115.33 149.824 114.174C149.347 113.018 149.102 111.779 149.104 110.528V106.08C149.104 105.772 149.226 105.477 149.444 105.26C149.661 105.042 149.956 104.92 150.264 104.92H275.672C275.824 104.92 275.975 104.95 276.116 105.008C276.257 105.067 276.384 105.152 276.492 105.26C276.6 105.368 276.685 105.495 276.744 105.636C276.802 105.777 276.832 105.928 276.832 106.08V110.528C276.83 113.044 275.829 115.456 274.051 117.235C272.272 119.014 269.86 120.014 267.344 120.016L267.352 120Z" fill="#888888"/>
<path d="M265.04 107.232H166.712C166.56 107.232 166.409 107.202 166.268 107.144C166.128 107.085 166 107 165.892 106.892C165.784 106.785 165.699 106.657 165.641 106.516C165.582 106.375 165.552 106.224 165.552 106.072C165.552 105.92 165.582 105.769 165.641 105.628C165.699 105.487 165.784 105.36 165.892 105.252C166 105.144 166.128 105.059 166.268 105C166.409 104.942 166.56 104.912 166.712 104.912H263.88V87.512H253.664L241.504 95.056C241.329 95.1668 241.128 95.2283 240.921 95.2341C240.714 95.24 240.509 95.1899 240.328 95.0892C240.147 94.9885 239.997 94.8409 239.892 94.6619C239.788 94.4829 239.734 94.2791 239.736 94.072V87.512H239.216C237.131 87.5099 235.132 86.6807 233.658 85.2064C232.184 83.7321 231.354 81.7331 231.352 79.6481V61.768C231.354 59.683 232.184 57.684 233.658 56.2097C235.132 54.7354 237.131 53.9061 239.216 53.904H239.776C240.084 53.904 240.379 54.0263 240.597 54.2438C240.814 54.4614 240.936 54.7564 240.936 55.064C240.936 55.3717 240.814 55.6668 240.597 55.8843C240.379 56.1018 240.084 56.224 239.776 56.224H239.216C237.747 56.2262 236.338 56.8109 235.298 57.8502C234.259 58.8894 233.674 60.2983 233.672 61.768V79.6481C233.674 81.1178 234.259 82.5266 235.298 83.5659C236.338 84.6051 237.747 85.1899 239.216 85.1921H240.896C241.204 85.1921 241.499 85.3143 241.717 85.5318C241.934 85.7493 242.056 86.0444 242.056 86.3521V91.9521L252.728 85.3361C252.909 85.2189 253.121 85.1576 253.336 85.16H265.04C265.348 85.16 265.643 85.2823 265.861 85.4998C266.078 85.7174 266.2 86.0124 266.2 86.32V106.04C266.2 106.192 266.17 106.343 266.112 106.484C266.054 106.625 265.968 106.753 265.861 106.86C265.753 106.968 265.625 107.053 265.484 107.112C265.343 107.17 265.193 107.2 265.04 107.2V107.232ZM162.936 107.232H160.912C160.605 107.232 160.31 107.11 160.092 106.892C159.875 106.675 159.752 106.38 159.752 106.072V34.5281C159.752 34.2204 159.875 33.9253 160.092 33.7078C160.31 33.4902 160.605 33.368 160.912 33.368H265.04C265.193 33.368 265.343 33.3981 265.484 33.4564C265.625 33.5147 265.753 33.6001 265.861 33.7078C265.968 33.8155 266.054 33.9434 266.112 34.0842C266.17 34.2249 266.2 34.3757 266.2 34.5281V49.616C266.2 49.768 266.17 49.9185 266.112 50.0588C266.053 50.1991 265.968 50.3264 265.86 50.4335C265.752 50.5405 265.624 50.6253 265.484 50.6827C265.343 50.7401 265.192 50.7691 265.04 50.768H257.296C257.047 50.7708 256.799 50.7895 256.552 50.824C256.398 50.853 256.239 50.8502 256.086 50.8158C255.932 50.7815 255.787 50.7164 255.66 50.6243C255.532 50.5323 255.425 50.4153 255.344 50.2805C255.263 50.1457 255.211 49.9958 255.189 49.8401C255.168 49.6843 255.179 49.5258 255.221 49.3743C255.263 49.2228 255.335 49.0814 255.433 48.9587C255.532 48.836 255.654 48.7345 255.793 48.6605C255.931 48.5864 256.084 48.5414 256.24 48.528C256.59 48.4799 256.943 48.4558 257.296 48.456H263.88V35.656H162.072V104.928H162.936C163.244 104.928 163.539 105.05 163.757 105.268C163.974 105.485 164.096 105.78 164.096 106.088C164.096 106.396 163.974 106.691 163.757 106.908C163.539 107.126 163.244 107.248 162.936 107.248V107.232Z" fill="#888888"/>
<path d="M219.128 62.528H172.88C172.573 62.528 172.278 62.4058 172.06 62.1883C171.843 61.9707 171.72 61.6757 171.72 61.368C171.72 61.0604 171.843 60.7653 172.06 60.5478C172.278 60.3303 172.573 60.208 172.88 60.208H219.128C219.436 60.208 219.731 60.3303 219.949 60.5478C220.166 60.7653 220.288 61.0604 220.288 61.368C220.288 61.6757 220.166 61.9707 219.949 62.1883C219.731 62.4058 219.436 62.528 219.128 62.528Z" fill="#CDCDCD"/>
<path d="M194.032 68.08H172.848C172.541 68.08 172.246 67.9578 172.028 67.7403C171.811 67.5227 171.688 67.2277 171.688 66.92C171.688 66.6124 171.811 66.3173 172.028 66.0998C172.246 65.8823 172.541 65.76 172.848 65.76H194.032C194.34 65.76 194.635 65.8823 194.853 66.0998C195.07 66.3173 195.192 66.6124 195.192 66.92C195.192 67.2277 195.07 67.5227 194.853 67.7403C194.635 67.9578 194.34 68.08 194.032 68.08Z" fill="#CDCDCD"/>
<path d="M201.896 73.672H172.848C172.541 73.672 172.246 73.5498 172.028 73.3323C171.811 73.1147 171.688 72.8197 171.688 72.512C171.688 72.2044 171.811 71.9093 172.028 71.6918C172.246 71.4743 172.541 71.3521 172.848 71.3521H201.896C202.204 71.3521 202.499 71.4743 202.717 71.6918C202.934 71.9093 203.056 72.2044 203.056 72.512C203.056 72.8197 202.934 73.1147 202.717 73.3323C202.499 73.5498 202.204 73.672 201.896 73.672Z" fill="#CDCDCD"/>
<path d="M219.128 79.2639H172.88C172.573 79.2639 172.278 79.1417 172.06 78.9242C171.843 78.7067 171.72 78.4116 171.72 78.1039C171.72 77.7963 171.843 77.5013 172.06 77.2837C172.278 77.0662 172.573 76.944 172.88 76.944H219.128C219.436 76.944 219.731 77.0662 219.949 77.2837C220.166 77.5013 220.288 77.7963 220.288 78.1039C220.288 78.4116 220.166 78.7067 219.949 78.9242C219.731 79.1417 219.436 79.2639 219.128 79.2639Z" fill="#CDCDCD"/>
<path d="M212.256 84.856H172.848C172.541 84.856 172.246 84.7338 172.028 84.5162C171.811 84.2987 171.688 84.0037 171.688 83.696C171.688 83.3884 171.811 83.0933 172.028 82.8758C172.246 82.6582 172.541 82.536 172.848 82.536H212.256C212.564 82.536 212.859 82.6582 213.077 82.8758C213.294 83.0933 213.416 83.3884 213.416 83.696C213.416 84.0037 213.294 84.2987 213.077 84.5162C212.859 84.7338 212.564 84.856 212.256 84.856Z" fill="#CDCDCD"/>
<path d="M201.896 90.4481H172.848C172.541 90.4481 172.246 90.3258 172.028 90.1083C171.811 89.8907 171.688 89.5957 171.688 89.2881C171.688 88.9804 171.811 88.6853 172.028 88.4678C172.246 88.2503 172.541 88.1281 172.848 88.1281H201.896C202.204 88.1281 202.499 88.2503 202.717 88.4678C202.934 88.6853 203.056 88.9804 203.056 89.2881C203.056 89.5957 202.934 89.8907 202.717 90.1083C202.499 90.3258 202.204 90.4481 201.896 90.4481Z" fill="#CDCDCD"/>
<path d="M219.128 96.04H172.88C172.72 96.0533 172.559 96.0333 172.407 95.9813C172.255 95.9292 172.116 95.8463 171.998 95.7376C171.88 95.629 171.786 95.497 171.721 95.3501C171.657 95.2031 171.623 95.0445 171.623 94.884C171.623 94.7236 171.657 94.5649 171.721 94.4179C171.786 94.271 171.88 94.139 171.998 94.0304C172.116 93.9217 172.255 93.8388 172.407 93.7867C172.559 93.7347 172.72 93.7147 172.88 93.728H219.128C219.288 93.7147 219.449 93.7347 219.6 93.7867C219.752 93.8388 219.891 93.9217 220.009 94.0304C220.128 94.139 220.222 94.271 220.286 94.4179C220.351 94.5649 220.384 94.7236 220.384 94.884C220.384 95.0445 220.351 95.2031 220.286 95.3501C220.222 95.497 220.128 95.629 220.009 95.7376C219.891 95.8463 219.752 95.9292 219.6 95.9813C219.449 96.0333 219.288 96.0533 219.128 96.04Z" fill="#CDCDCD"/>
<path d="M240.896 95.224C240.698 95.2237 240.503 95.1742 240.328 95.08C240.147 94.9794 239.997 94.832 239.893 94.6533C239.789 94.4745 239.735 94.2709 239.736 94.064V87.504H239.216C237.131 87.5019 235.132 86.6727 233.658 85.1984C232.184 83.7241 231.354 81.725 231.352 79.64V61.768C231.354 59.683 232.184 57.684 233.658 56.2097C235.132 54.7353 237.131 53.9061 239.216 53.904H250.696C250.867 53.9022 251.036 53.9383 251.191 54.0097C251.346 54.0811 251.483 54.186 251.592 54.3169C251.702 54.4478 251.781 54.6014 251.824 54.7666C251.867 54.9318 251.872 55.1044 251.84 55.272C251.781 55.6047 251.751 55.9421 251.752 56.28V74.16C251.754 75.6297 252.339 77.0386 253.378 78.0779C254.418 79.1171 255.827 79.7019 257.296 79.704H275.696C275.914 79.7019 276.128 79.7631 276.312 79.88L278.528 81.256C278.764 81.402 278.939 81.6275 279.023 81.8916C279.106 82.1558 279.093 82.4411 278.984 82.696C278.385 84.1125 277.384 85.3222 276.104 86.1754C274.824 87.0285 273.322 87.4877 271.784 87.496H253.736L241.528 95.056C241.345 95.1671 241.135 95.2253 240.92 95.224H240.896ZM239.216 56.224C237.747 56.2261 236.338 56.8109 235.298 57.8501C234.259 58.8894 233.674 60.2983 233.672 61.768V79.64C233.672 81.1111 234.256 82.5221 235.296 83.563C236.335 84.604 237.745 85.1899 239.216 85.192H240.896C241.049 85.192 241.199 85.222 241.34 85.2803C241.481 85.3386 241.609 85.4241 241.717 85.5318C241.824 85.6395 241.91 85.7674 241.968 85.9081C242.026 86.0488 242.056 86.1997 242.056 86.352V91.952L252.728 85.328C252.912 85.2169 253.122 85.1588 253.336 85.16H271.736C272.661 85.1592 273.571 84.9267 274.383 84.4837C275.195 84.0407 275.883 83.4014 276.384 82.624L275.36 81.992H257.312C255.228 81.9899 253.23 81.1604 251.757 79.6859C250.284 78.2113 249.456 76.2123 249.456 74.128V56.224H239.216Z" fill="#93D554"/>
<path d="M288.112 89.728C287.897 89.729 287.686 89.668 287.504 89.552L275.344 82.008H257.296C255.211 82.0059 253.212 81.1767 251.738 79.7024C250.263 78.2281 249.434 76.2291 249.432 74.144V56.28C249.434 54.195 250.263 52.196 251.738 50.7217C253.212 49.2474 255.211 48.4181 257.296 48.416H289.792C291.878 48.416 293.879 49.2443 295.356 50.7188C296.832 52.1934 297.662 54.1936 297.664 56.28V74.16C297.662 76.2464 296.832 78.2466 295.356 79.7212C293.879 81.1957 291.878 82.024 289.792 82.024H289.272V88.584C289.273 88.7898 289.219 88.9919 289.114 89.1693C289.01 89.3467 288.86 89.4928 288.68 89.592C288.508 89.6931 288.312 89.7457 288.112 89.744V89.728ZM257.296 50.72C255.826 50.7221 254.417 51.3069 253.378 52.3461C252.339 53.3854 251.754 54.7943 251.752 56.264V74.144C251.754 75.6138 252.339 77.0227 253.378 78.0619C254.417 79.1012 255.826 79.6859 257.296 79.688H275.696C275.913 79.687 276.126 79.745 276.312 79.856L286.976 86.48V80.88C286.975 80.7274 287.004 80.5761 287.062 80.4349C287.12 80.2936 287.205 80.1653 287.313 80.0574C287.421 79.9495 287.55 79.8641 287.691 79.8062C287.832 79.7482 287.983 79.719 288.136 79.72H289.816C291.287 79.72 292.698 79.1362 293.739 78.0967C294.78 77.0573 295.366 75.6471 295.368 74.176V56.28C295.366 54.8089 294.78 53.3988 293.739 52.3593C292.698 51.3199 291.287 50.736 289.816 50.736L257.296 50.72Z" fill="#80C242"/>
<path d="M284.824 59.632H262.272C262.119 59.632 261.969 59.6021 261.828 59.5438C261.687 59.4855 261.559 59.4 261.451 59.2923C261.344 59.1846 261.258 59.0567 261.2 58.9159C261.142 58.7752 261.112 58.6244 261.112 58.472C261.112 58.3197 261.142 58.1689 261.2 58.0281C261.258 57.8874 261.344 57.7595 261.451 57.6518C261.559 57.5441 261.687 57.4586 261.828 57.4003C261.969 57.342 262.119 57.312 262.272 57.312H284.824C284.976 57.312 285.127 57.342 285.268 57.4003C285.408 57.4586 285.536 57.5441 285.644 57.6518C285.752 57.7595 285.837 57.8874 285.895 58.0281C285.954 58.1689 285.984 58.3197 285.984 58.472C285.984 58.6244 285.954 58.7752 285.895 58.9159C285.837 59.0567 285.752 59.1846 285.644 59.2923C285.536 59.4 285.408 59.4855 285.268 59.5438C285.127 59.6021 284.976 59.632 284.824 59.632Z" fill="#5A5A5A"/>
<path d="M284.824 68.768H262.272C261.964 68.768 261.669 68.6458 261.451 68.4282C261.234 68.2107 261.112 67.9156 261.112 67.608C261.112 67.3003 261.234 67.0053 261.451 66.7877C261.669 66.5702 261.964 66.448 262.272 66.448H284.824C285.131 66.448 285.426 66.5702 285.644 66.7877C285.861 67.0053 285.984 67.3003 285.984 67.608C285.984 67.9156 285.861 68.2107 285.644 68.4282C285.426 68.6458 285.131 68.768 284.824 68.768Z" fill="#5A5A5A"/>
<path d="M0.728043 100.992C0.511906 101.08 0.327035 101.23 0.197281 101.424C0.067527 101.618 -0.00119093 101.847 1.562e-05 102.08V117.856C1.562e-05 118.147 0.115472 118.425 0.321012 118.631C0.526552 118.836 0.805334 118.952 1.09601 118.952H1.23205C1.52272 118.952 1.80151 118.836 2.00705 118.631C2.21259 118.425 2.32804 118.147 2.32804 117.856V102.88L37.8401 88.6559C37.997 88.5927 38.1382 88.4959 38.2538 88.3723C38.3694 88.2487 38.4566 88.1013 38.5092 87.9405C38.5618 87.7797 38.5785 87.6093 38.5583 87.4413C38.5381 87.2733 38.4813 87.1117 38.392 86.9679C38.2493 86.7352 38.029 86.5603 37.77 86.4739C37.511 86.3876 37.2299 86.3954 36.9761 86.496L0.728043 100.992Z" fill="#888888"/>
<path d="M86.8402 83.0481C86.6662 82.9818 86.4788 82.9581 86.2937 82.979C86.1086 82.9998 85.9312 83.0647 85.7763 83.1681L66.2162 96.2001L46.6643 83.1681C46.5079 83.0646 46.3291 82.9998 46.1427 82.9789C45.9563 82.958 45.7676 82.9818 45.5922 83.0481L41.5202 84.6481C41.2857 84.7423 41.0742 84.886 40.9001 85.0693C40.7261 85.2526 40.5935 85.4712 40.5115 85.7103C40.4296 85.9495 40.4001 86.2034 40.425 86.455C40.45 86.7065 40.5289 86.9497 40.6563 87.1681L40.8082 87.4401L51.7523 107.128C51.8346 107.262 51.943 107.379 52.0712 107.47C52.1994 107.562 52.3447 107.627 52.4984 107.661C52.6521 107.695 52.8111 107.698 52.966 107.67C53.121 107.642 53.2686 107.583 53.4002 107.496L66.2002 98.9601L79.0002 107.576C79.1748 107.676 79.3757 107.721 79.5763 107.704H79.6403C79.8337 107.702 80.0238 107.654 80.194 107.561C80.3641 107.469 80.5091 107.337 80.6162 107.176L93.3282 88.1361L93.3763 88.0641C93.5293 87.8336 93.6291 87.5719 93.6685 87.298C93.7078 87.0242 93.6857 86.745 93.6037 86.4808C93.5218 86.2165 93.3821 85.9738 93.1946 85.7703C93.0072 85.5668 92.7768 85.4075 92.5202 85.3041L86.8402 83.0481ZM53.2403 104.912L43.1042 86.5921L46.0002 85.4321L46.1122 85.5041L64.1362 97.5921L53.2403 104.912ZM79.4242 104.84L68.3202 97.6401L86.5763 85.4721L91.1282 87.3281L79.4242 104.84Z" fill="#80C242"/>
<path d="M131.704 100.992L126.472 98.9201L96.872 87.0641C96.6244 86.9655 96.3505 86.9547 96.0958 87.0332C95.8412 87.1118 95.6211 87.2752 95.472 87.4961C95.3749 87.6407 95.3112 87.8052 95.2859 87.9775C95.2605 88.1498 95.274 88.3257 95.3254 88.4921C95.3768 88.6585 95.4648 88.8114 95.5828 88.9394C95.7009 89.0674 95.8462 89.1674 96.0079 89.2321L130.104 102.88V117.856C130.106 118.147 130.223 118.426 130.43 118.632C130.637 118.837 130.917 118.952 131.208 118.952H131.344C131.635 118.952 131.913 118.837 132.119 118.631C132.325 118.426 132.44 118.147 132.44 117.856V102.08C132.441 101.846 132.371 101.617 132.239 101.423C132.108 101.229 131.922 101.079 131.704 100.992Z" fill="#888888"/>
<path d="M107.648 29.4C107.644 29.0999 107.524 28.8132 107.312 28.6C107.099 28.3879 106.813 28.2649 106.512 28.256H103.312V15.936C103.306 15.6363 103.186 15.3501 102.976 15.136C93.2281 5.41195 80.0212 -0.0489502 66.2523 -0.0489502C52.4833 -0.0489502 39.2764 5.41195 29.5283 15.136C29.317 15.3492 29.1965 15.6359 29.1922 15.936V28.232H25.8723C25.5625 28.232 25.2654 28.3551 25.0463 28.5741C24.8273 28.7931 24.7042 29.0902 24.7042 29.4V54.024C24.6978 54.2969 24.7823 54.5643 24.9443 54.784C25.0527 54.9271 25.1931 55.0428 25.3542 55.1219C25.5154 55.2011 25.6928 55.2416 25.8723 55.24H34.8403C35.0199 55.2422 35.1975 55.202 35.3587 55.1228C35.52 55.0436 35.6603 54.9275 35.7683 54.784C35.9326 54.5654 36.0172 54.2973 36.0082 54.024V29.52C36.0245 29.2334 35.9396 28.9503 35.7683 28.72C35.659 28.5779 35.5184 28.4628 35.3575 28.3837C35.1965 28.3046 35.0196 28.2637 34.8403 28.264H31.5203V16.488L31.8563 16.168C41.1057 7.28551 53.4325 2.32512 66.2563 2.32512C79.0801 2.32512 91.4069 7.28551 100.656 16.168L100.984 16.488V28.296H97.6643C97.3552 28.2981 97.0593 28.4218 96.8407 28.6404C96.6221 28.859 96.4983 29.1549 96.4962 29.464V54.144C96.4962 54.297 96.5265 54.4485 96.5853 54.5898C96.6441 54.731 96.7303 54.8592 96.8388 54.9671C96.9474 55.0749 97.0763 55.1602 97.2179 55.218C97.3596 55.2758 97.5113 55.305 97.6643 55.304H100.984V62.504L95.1922 66.376L94.4723 66.216H94.2243C93.9598 66.2152 93.7026 66.303 93.4938 66.4654C93.285 66.6278 93.1367 66.8554 93.0723 67.112C93.0356 67.2638 93.0301 67.4216 93.0562 67.5756C93.0823 67.7296 93.1395 67.8767 93.2243 68.008C93.3065 68.1414 93.4148 68.2569 93.5426 68.3476C93.6704 68.4383 93.8152 68.5024 93.9683 68.536L95.0082 68.768H95.2882C95.5214 68.7643 95.7488 68.695 95.9443 68.568L102.672 64.08C102.834 63.9732 102.968 63.8285 103.061 63.6584C103.155 63.4883 103.205 63.298 103.208 63.104V55.304H106.528C106.829 55.2951 107.115 55.1721 107.328 54.96C107.54 54.7468 107.66 54.4601 107.664 54.16L107.648 29.4ZM33.6483 30.632V52.976H27.0082V30.632H33.6483ZM105.432 52.976H98.7922V30.632H105.432V52.976Z" fill="#80C242"/>
<path d="M40.3762 59.456C40.3762 65.1196 42.6254 70.5514 46.6295 74.557C50.6335 78.5625 56.0645 80.8139 61.7281 80.816H70.7041C74.7434 80.7811 78.6903 79.6033 82.0881 77.4188C85.4859 75.2343 88.1957 72.1324 89.9041 68.472L90.1841 67.864L91.6321 63.592C91.9004 62.2295 92.0397 60.8447 92.0481 59.456V30.296C92.0481 24.631 89.7977 19.198 85.7919 15.1922C81.7861 11.1865 76.3531 8.93604 70.6881 8.93604H61.7121C56.0485 8.93816 50.6175 11.1895 46.6135 15.1951C42.6094 19.2006 40.3602 24.6324 40.3602 30.296L40.3762 59.456ZM42.7041 30.296C42.7041 25.2506 44.7085 20.4117 48.2762 16.844C51.8439 13.2764 56.6826 11.272 61.7281 11.272H70.7041C73.203 11.2699 75.6778 11.7606 77.9868 12.7159C80.2959 13.6712 82.3939 15.0724 84.1608 16.8394C85.9278 18.6063 87.329 20.7043 88.2843 23.0134C89.2396 25.3224 89.7302 27.7972 89.7281 30.296V34.232L84.9921 29.432C84.7689 29.2193 84.4725 29.1006 84.1642 29.1006C83.8558 29.1006 83.5593 29.2193 83.3361 29.432C80.6109 32.1536 77.0605 33.8951 73.2401 34.384L63.7841 35.864L66.8562 33.064C67.6906 31.9132 68.4291 30.6958 69.0642 29.424L69.4881 28.56C69.5935 28.3578 69.6383 28.1294 69.617 27.9023C69.5957 27.6753 69.5093 27.4592 69.3682 27.28C69.2309 27.1129 69.049 26.9881 68.8437 26.9202C68.6383 26.8522 68.418 26.8439 68.2081 26.896L42.7041 33.296V30.296ZM42.7041 35.688L66.4722 29.736L64.6081 32.184C63.971 33.0137 63.2788 33.7995 62.5361 34.536L60.9361 36.136C60.7638 36.3075 60.65 36.529 60.6112 36.7689C60.5724 37.0089 60.6106 37.255 60.7201 37.472C60.8117 37.6787 60.9607 37.8548 61.1492 37.9796C61.3378 38.1043 61.558 38.1725 61.7841 38.176H61.9921L73.5762 36.728C77.1915 36.2379 80.6031 34.7659 83.4401 32.472L84.1921 31.856L89.6801 37.352V59.44C89.6712 60.9467 89.4888 62.4472 89.1361 63.912L88.8881 64.944L76.4001 62.144V58.616C76.3897 58.3157 76.2669 58.0302 76.0562 57.816C75.8421 57.6061 75.5559 57.486 75.2562 57.48H59.5521C59.3988 57.48 59.2469 57.5102 59.1052 57.5689C58.9635 57.6276 58.8347 57.7137 58.7263 57.8221C58.6178 57.9306 58.5317 58.0594 58.473 58.2011C58.4143 58.3428 58.3841 58.4947 58.3841 58.648V67.616C58.3913 67.9171 58.5146 68.2037 58.7281 68.416C58.9414 68.6281 59.2274 68.7511 59.5281 68.76H75.2321C75.5328 68.7511 75.8188 68.6281 76.0321 68.416C76.2456 68.2037 76.3689 67.9171 76.3762 67.616V64.568L88.0401 67.192L87.3762 68.44C85.764 71.46 83.3661 73.9886 80.4357 75.7586C77.5054 77.5286 74.1515 78.4744 70.7281 78.496H61.7441C56.6987 78.496 51.8598 76.4917 48.2921 72.924C44.7244 69.3563 42.7201 64.5175 42.7201 59.472L42.7041 35.688ZM74.0241 59.792V66.432H60.6562V59.792H74.0241Z" fill="#5A5A5A"/>
</g>
<defs>
<clipPath id="clip0_142_86">
<rect width="297.664" height="120" fill="white"/>
</clipPath>
</defs>
</svg>
