<svg width="127" height="150" viewBox="0 0 127 150" fill="none" xmlns="http://www.w3.org/2000/svg">
<path d="M46.92 127.04L45.3 130H58.27L56.64 127.04H46.92Z" fill="#5A5A5A"/>
<path d="M124.7 62.74H104.84V1.48C104.84 1.08748 104.684 0.711025 104.406 0.433472C104.129 0.155918 103.752 0 103.36 0H1.47995C1.08743 0 0.710995 0.155918 0.433441 0.433472C0.155887 0.711025 -3.05176e-05 1.08748 -3.05176e-05 1.48V113.48C0.00261502 117.673 1.66881 121.694 4.6329 124.66C7.59699 127.626 11.6168 129.295 15.81 129.3H29.16L30.8499 126.3H15.8499C12.4418 126.295 9.17494 124.938 6.76596 122.527C4.35698 120.116 3.00261 116.848 2.99997 113.44V3.00999H101.93V117.14C101.942 119.88 102.891 122.534 104.62 124.66L105.95 126.32H73.05L74.75 129.32H114.07C117.288 129.301 120.368 128.008 122.634 125.723C124.9 123.438 126.168 120.348 126.16 117.13V64.22C126.16 63.8309 126.007 63.4575 125.734 63.1805C125.46 62.9035 125.089 62.7452 124.7 62.74ZM123.22 117.13C123.22 119.567 122.252 121.905 120.528 123.628C118.805 125.352 116.467 126.32 114.03 126.32C111.593 126.32 109.255 125.352 107.532 123.628C105.808 121.905 104.84 119.567 104.84 117.13V65.7H123.22V117.13Z" fill="#5A5A5A"/>
<path d="M82.54 142.89L66.7201 115.06C65.9848 115.732 65.1764 116.319 64.3101 116.81L78.39 141.55L73.63 140.63C73.3212 140.573 73.0021 140.614 72.7184 140.749C72.4346 140.884 72.2007 141.104 72.05 141.38L69.9 145.38L55.5601 119.07C54.5006 119.26 53.4264 119.357 52.35 119.36L68.62 149.2C68.7484 149.433 68.9366 149.627 69.1652 149.762C69.3937 149.897 69.6544 149.969 69.92 149.97C70.1882 149.969 70.451 149.896 70.6802 149.756C70.9093 149.617 71.0961 149.418 71.2201 149.18L74.14 143.71L80.98 145.04C81.2571 145.089 81.5427 145.06 81.8042 144.956C82.0657 144.852 82.2929 144.677 82.4601 144.45C82.6198 144.224 82.712 143.958 82.7262 143.682C82.7404 143.405 82.6758 143.131 82.54 142.89Z" fill="#80C242"/>
<path d="M33.51 145.41L31.38 141.61C31.2277 141.346 30.9988 141.135 30.7238 141.005C30.4487 140.875 30.1405 140.831 29.8401 140.88L24.9601 141.65L39.9601 115.72C39.1257 115.192 38.2454 114.74 37.3301 114.37L20.9401 142.86C20.8063 143.101 20.7419 143.374 20.7543 143.65C20.7666 143.925 20.8552 144.192 21.01 144.42C21.1743 144.649 21.3985 144.827 21.6578 144.937C21.9172 145.046 22.2016 145.082 22.48 145.04L29.3401 143.95L32.29 149.21C32.4185 149.437 32.6045 149.625 32.8292 149.757C33.054 149.889 33.3096 149.959 33.5701 149.96C33.838 149.958 34.1005 149.885 34.3307 149.747C34.5609 149.61 34.7505 149.415 34.88 149.18L51.16 119.57C50.1515 119.321 49.1251 119.15 48.0901 119.06L33.51 145.41Z" fill="#80C242"/>
<path d="M86.4601 21.52C86.8579 21.52 87.2394 21.362 87.5207 21.0807C87.802 20.7994 87.9601 20.4178 87.9601 20.02C87.9601 19.6222 87.802 19.2407 87.5207 18.9594C87.2394 18.6781 86.8579 18.52 86.4601 18.52H17.4601C17.0622 18.52 16.6807 18.6781 16.3994 18.9594C16.1181 19.2407 15.9601 19.6222 15.9601 20.02C15.9601 20.4178 16.1181 20.7994 16.3994 21.0807C16.6807 21.362 17.0622 21.52 17.4601 21.52H86.4601Z" fill="#80C242"/>
<path d="M55.79 33.76C56.1878 33.76 56.5694 33.602 56.8507 33.3207C57.132 33.0394 57.29 32.6578 57.29 32.26C57.29 31.8622 57.132 31.4807 56.8507 31.1994C56.5694 30.9181 56.1878 30.76 55.79 30.76H17.44C17.0422 30.76 16.6607 30.9181 16.3794 31.1994C16.0981 31.4807 15.94 31.8622 15.94 32.26C15.94 32.6578 16.0981 33.0394 16.3794 33.3207C16.6607 33.602 17.0422 33.76 17.44 33.76H55.79Z" fill="#888888"/>
<path d="M66.01 46.01C66.4078 46.01 66.7893 45.852 67.0706 45.5707C67.352 45.2894 67.51 44.9078 67.51 44.51C67.51 44.1122 67.352 43.7307 67.0706 43.4494C66.7893 43.1681 66.4078 43.01 66.01 43.01H17.44C17.0422 43.01 16.6607 43.1681 16.3794 43.4494C16.0981 43.7307 15.94 44.1122 15.94 44.51C15.94 44.9078 16.0981 45.2894 16.3794 45.5707C16.6607 45.852 17.0422 46.01 17.44 46.01H66.01Z" fill="#888888"/>
<path d="M57.76 55.28H17.44C17.0422 55.28 16.6607 55.4381 16.3794 55.7194C16.0981 56.0007 15.94 56.3822 15.94 56.78C15.94 57.1779 16.0981 57.5594 16.3794 57.8407C16.6607 58.122 17.0422 58.28 17.44 58.28H57.76C58.1578 58.28 58.5393 58.122 58.8206 57.8407C59.102 57.5594 59.26 57.1779 59.26 56.78C59.26 56.3822 59.102 56.0007 58.8206 55.7194C58.5393 55.4381 58.1578 55.28 57.76 55.28Z" fill="#888888"/>
<path d="M59.9601 106.43L61.3 100.52L66.76 97.9C66.9601 97.8045 67.1361 97.6649 67.2746 97.4917C67.4132 97.3185 67.5108 97.1162 67.56 96.9C67.6078 96.6839 67.6076 96.4599 67.5592 96.2439C67.5108 96.0278 67.4154 95.8251 67.28 95.65L63.5 90.91L64.8499 85.01C64.8962 84.7947 64.8944 84.5719 64.8442 84.3575C64.7941 84.1431 64.697 83.9424 64.56 83.77C64.4249 83.5931 64.2509 83.4497 64.0515 83.3508C63.8521 83.252 63.6326 83.2004 63.41 83.2H57.3499L53.57 78.47C53.4186 78.3179 53.2386 78.1972 53.0404 78.1149C52.8422 78.0326 52.6296 77.9902 52.415 77.9902C52.2004 77.9902 51.9879 78.0326 51.7896 78.1149C51.5914 78.1972 51.4114 78.3179 51.26 78.47L47.49 83.2H41.43C41.2079 83.2004 40.9886 83.2508 40.7885 83.3475C40.5885 83.4442 40.4128 83.5847 40.2745 83.7586C40.1362 83.9324 40.0389 84.1352 39.9896 84.3519C39.9403 84.5685 39.9404 84.7934 39.99 85.01L41.3401 90.91L37.56 95.65C37.4228 95.8241 37.3263 96.0267 37.2778 96.2431C37.2294 96.4594 37.2302 96.6838 37.2801 96.8998C37.33 97.1158 37.4278 97.3178 37.5663 97.4909C37.7047 97.664 37.8803 97.8038 38.08 97.9L43.53 100.52L44.88 106.43C44.9293 106.646 45.0268 106.849 45.1654 107.022C45.3039 107.195 45.4799 107.334 45.68 107.43C45.8789 107.529 46.098 107.58 46.32 107.58C46.5421 107.58 46.7611 107.529 46.9601 107.43L52.42 104.81L57.88 107.43C58.0789 107.529 58.2979 107.58 58.52 107.58C58.742 107.58 58.9611 107.529 59.16 107.43C59.3601 107.334 59.5361 107.195 59.6747 107.022C59.8132 106.849 59.9108 106.646 59.9601 106.43ZM58.58 99.18L57.49 103.96L53.06 101.83C52.8597 101.736 52.6412 101.688 52.42 101.688C52.1988 101.688 51.9803 101.736 51.78 101.83L47.3499 103.96L46.26 99.18C46.2057 98.9645 46.1052 98.7634 45.9653 98.5907C45.8254 98.418 45.6496 98.2779 45.45 98.18L41.03 96.05L44.0901 92.21C44.2285 92.0364 44.3263 91.8341 44.3764 91.6178C44.4266 91.4016 44.4278 91.1768 44.38 90.96L43.28 86.17H48.16C48.3819 86.1716 48.6011 86.1218 48.8006 86.0247C49.0001 85.9276 49.1744 85.7856 49.31 85.61L52.38 81.77L55.44 85.61C55.5756 85.7856 55.75 85.9276 55.9494 86.0247C56.1489 86.1218 56.3682 86.1716 56.5901 86.17H61.51L60.42 90.96C60.3723 91.1746 60.3727 91.397 60.4211 91.6114C60.4695 91.8258 60.5648 92.0268 60.7 92.2L63.77 96.05L59.3401 98.18C59.1482 98.2813 58.9807 98.4233 58.8495 98.596C58.7182 98.7687 58.6263 98.968 58.58 99.18Z" fill="#80C242"/>
<path d="M55.91 119.78L57.2901 119.52C59.465 119.098 61.576 118.396 63.5701 117.43L64.4201 117.03L66.98 115.54L67.7201 115C72.2213 111.794 75.5974 107.25 77.3692 102.016C79.1409 96.781 79.218 91.1211 77.5895 85.8401C75.9609 80.559 72.7096 75.9255 68.2974 72.5978C63.8852 69.2701 58.5365 67.4174 53.0112 67.3029C47.486 67.1885 42.0653 68.8181 37.5191 71.9603C32.9728 75.1024 29.5325 79.5973 27.6867 84.8064C25.8408 90.0154 25.6834 95.6737 27.2368 100.977C28.7903 106.281 31.9756 110.96 36.3401 114.35L37.02 114.89L39.51 116.49L40.39 116.95C42.326 117.987 44.3858 118.773 46.52 119.29L47.8201 119.59L51 119.91H51.63H51.9601H52.5601L55.91 119.78ZM52.4201 117.06C47.8137 117.06 43.3109 115.694 39.4808 113.135C35.6508 110.576 32.6656 106.938 30.9028 102.683C29.1401 98.427 28.6789 93.7442 29.5775 89.2264C30.4762 84.7085 32.6944 80.5587 35.9516 77.3015C39.2087 74.0443 43.3585 71.8262 47.8764 70.9275C52.3942 70.0289 57.0771 70.4901 61.3328 72.2529C65.5885 74.0156 69.2258 77.0008 71.7849 80.8308C74.3441 84.6608 75.7101 89.1637 75.7101 93.77C75.7022 99.9445 73.2458 105.864 68.8798 110.23C64.5138 114.596 58.5945 117.052 52.4201 117.06Z" fill="#888888"/>
</svg>
