<svg width="36" height="36" viewBox="0 0 36 36" fill="none" xmlns="http://www.w3.org/2000/svg">
<path fill-rule="evenodd" clip-rule="evenodd" d="M19.7969 0.0899474C23.9399 0.505623 27.8107 2.34479 30.7499 5.29416C32.425 6.96634 33.7516 8.95434 34.6528 11.143C35.554 13.3316 36.0119 15.6773 35.9999 18.0441C35.9897 22.208 34.5362 26.2395 31.8871 29.4519C29.238 32.6643 25.5571 34.859 21.4715 35.662C17.3858 36.4651 13.1481 35.8268 9.48024 33.856C5.81236 31.8852 2.94117 28.7037 1.35579 24.8535C-0.229589 21.0033 -0.431095 16.7225 0.785577 12.7404C2.00225 8.75831 4.56183 5.32116 8.02835 3.01448C11.4949 0.707803 15.6539 -0.325728 19.7969 0.0899474ZM23.7679 31.9188C25.5869 31.1658 27.2386 30.0595 28.6274 28.6641C30.7267 26.5672 32.1569 23.8948 32.7371 20.9849C33.3173 18.075 33.0215 15.0585 31.8871 12.3167C30.7527 9.57501 28.8306 7.23132 26.364 5.58212C23.8974 3.93292 20.9971 3.05231 18.0299 3.05167H17.6774C15.7076 3.07482 13.7616 3.48572 11.9506 4.26092C10.1396 5.03613 8.49897 6.16045 7.12246 7.56969C5.74595 8.97893 4.66049 10.6455 3.92805 12.4742C3.19562 14.303 2.83054 16.2581 2.85368 18.2279C2.87683 20.1977 3.28775 22.1437 4.06295 23.9547C4.83816 25.7657 5.96247 27.4063 7.37171 28.7829C8.78096 30.1594 10.4475 31.2448 12.2763 31.9773C14.105 32.7097 16.0601 33.0748 18.0299 33.0516C19.9987 33.0569 21.9489 32.6719 23.7679 31.9188ZM22.8525 17.1291C23.4867 16.2013 23.8559 15.1181 23.9204 13.9961C23.9849 12.8741 23.7422 11.7557 23.2184 10.7614C22.6946 9.76706 21.9096 8.93438 20.9478 8.35295C19.986 7.77152 18.8839 7.46337 17.76 7.46165C16.6053 7.4619 15.4743 7.7888 14.4975 8.40459C13.5208 9.02038 12.7381 9.89993 12.24 10.9416C12.0573 11.3217 12.033 11.7587 12.1725 12.1567C12.2748 12.4576 12.4645 12.7211 12.7173 12.9136C12.9702 13.1062 13.2747 13.2189 13.592 13.2374C13.9092 13.2559 14.2248 13.1794 14.4984 13.0176C14.7719 12.8558 14.991 12.6161 15.1275 12.3292C15.3621 11.824 15.737 11.397 16.2075 11.0992C16.6757 10.7994 17.2191 10.6382 17.775 10.6342C18.4565 10.6694 19.1056 10.936 19.6152 11.3899C20.1248 11.8438 20.4645 12.4578 20.5781 13.1307C20.6917 13.8036 20.5725 14.4951 20.2401 15.0912C19.9078 15.6872 19.3822 16.1521 18.75 16.4091C18.0138 16.6446 17.3724 17.1099 16.92 17.7366C16.4622 18.3586 16.2128 19.1094 16.2075 19.8816V21.3816C16.1925 21.6001 16.2226 21.8194 16.2959 22.0257C16.3692 22.2321 16.4842 22.4212 16.6336 22.5813C16.7831 22.7413 16.9639 22.869 17.1647 22.9562C17.3656 23.0435 17.5823 23.0885 17.8013 23.0885C18.0203 23.0885 18.2369 23.0435 18.4378 22.9562C18.6387 22.869 18.8195 22.7413 18.9689 22.5813C19.1184 22.4212 19.2333 22.2321 19.3066 22.0257C19.3799 21.8194 19.41 21.6001 19.395 21.3816V19.8816C19.4035 19.7768 19.4452 19.6774 19.5139 19.5979C19.5827 19.5183 19.675 19.4627 19.7775 19.4391C21.0224 19.0163 22.0997 18.207 22.8525 17.1291ZM18.9301 28.1166C19.0779 27.9689 19.1952 27.7935 19.2752 27.6005C19.3553 27.4075 19.3965 27.2006 19.3965 26.9916C19.3965 26.7826 19.3553 26.5757 19.2752 26.3827C19.1952 26.1896 19.0779 26.0143 18.9301 25.8666C18.7824 25.7187 18.607 25.6014 18.414 25.5214C18.2209 25.4414 18.014 25.4002 17.8051 25.4002C17.5961 25.4002 17.3892 25.4414 17.1961 25.5214C17.0031 25.6014 16.8277 25.7187 16.6801 25.8666C16.3795 26.1671 16.2097 26.5741 16.2076 26.9991C16.2061 27.2099 16.2472 27.4189 16.3284 27.6135C16.4096 27.8081 16.5292 27.9843 16.6801 28.1316C16.9857 28.4176 17.3894 28.5755 17.808 28.5727C18.2266 28.5699 18.6282 28.4066 18.9301 28.1166Z" fill="#93D554"/>
</svg>
