<svg width="173" height="130" viewBox="0 0 173 130" fill="none" xmlns="http://www.w3.org/2000/svg">
<path d="M172.82 120.52V114.43C172.82 114.266 172.787 114.104 172.724 113.953C172.66 113.801 172.567 113.665 172.45 113.55C172.216 113.319 171.899 113.189 171.57 113.19H160.65V29.27C160.663 28.0371 160.43 26.8139 159.965 25.6723C159.499 24.5306 158.81 23.4935 157.938 22.6216C157.067 21.7498 156.029 21.0608 154.888 20.5952C153.746 20.1296 152.523 19.8966 151.29 19.91H133V22.41H151.35C155.52 22.41 158.21 25.1 158.21 29.27V113.19H104.09L100.93 115.68H170.35V120.51C170.35 122.6 169.35 124.12 167.26 125.43C164.864 126.751 162.165 127.423 159.43 127.38H13.43C10.6949 127.421 7.99625 126.749 5.60003 125.43C3.46003 124.12 2.51007 122.6 2.51007 120.51V115.73H71.7701L68.7701 113.24H14.67V29.27C14.67 25.1 17.37 22.41 21.54 22.41H39.6V19.91H21.54C20.3071 19.8966 19.084 20.1296 17.9423 20.5952C16.8007 21.0608 15.7635 21.7498 14.8917 22.6216C14.0198 23.4935 13.3309 24.5306 12.8653 25.6723C12.3996 26.8139 12.1666 28.0371 12.18 29.27V113.19H0.950007C0.675326 113.258 0.432284 113.419 0.261286 113.644C0.0902886 113.87 0.00168737 114.147 0.0100655 114.43V120.53C0.053449 121.981 0.474818 123.395 1.23248 124.634C1.99014 125.872 3.05779 126.891 4.33001 127.59C7.09697 129.171 10.2443 129.963 13.43 129.88H159.43C162.616 129.963 165.763 129.171 168.53 127.59C169.799 126.887 170.862 125.865 171.614 124.625C172.367 123.385 172.782 121.97 172.82 120.52Z" fill="#5A5A5A"/>
<path d="M133.41 53.87V19.58C133.412 19.3307 133.338 19.0866 133.199 18.8797C133.06 18.6727 132.862 18.5125 132.63 18.42L86.87 0.0900442C86.5751 -0.0300148 86.2449 -0.0300148 85.9499 0.0900442L40.1899 18.42C39.9592 18.5137 39.7616 18.6741 39.6227 18.8808C39.4837 19.0875 39.4097 19.331 39.41 19.58V53.87C39.41 83.4 57.21 110.38 85.87 124.27C86.0395 124.354 86.2259 124.397 86.4149 124.397C86.6039 124.397 86.7905 124.354 86.96 124.27C115.61 110.38 133.41 83.4 133.41 53.87ZM86.41 121.76L86.12 121.61C58.84 108.03 41.9 82.08 41.9 53.87V20.42L86.41 2.59004L130.92 20.42V53.87C130.92 82.08 113.92 108.03 86.6999 121.61L86.41 121.76Z" fill="#80C242"/>
<path d="M86.41 33.65C80.7634 33.65 75.2435 35.3244 70.5485 38.4616C65.8534 41.5987 62.1941 46.0576 60.0332 51.2744C57.8723 56.4912 57.307 62.2317 58.4086 67.7699C59.5102 73.308 62.2293 78.3951 66.2221 82.3879C70.2148 86.3807 75.3019 89.0998 80.8401 90.2014C86.3783 91.3031 92.1187 90.7377 97.3356 88.5768C102.552 86.4159 107.011 82.7566 110.148 78.0616C113.286 73.3665 114.96 67.8467 114.96 62.2C114.952 54.6305 111.942 47.3733 106.589 42.0209C101.237 36.6685 93.9795 33.658 86.41 33.65ZM86.41 88.25C81.2529 88.2619 76.2081 86.7434 71.9144 83.8866C67.6208 81.0299 64.2714 76.9635 62.29 72.2021C60.3087 67.4407 59.7846 62.1985 60.7842 57.1392C61.7837 52.0798 64.2619 47.4308 67.905 43.7806C71.5482 40.1304 76.1926 37.6433 81.25 36.634C86.3074 35.6247 91.5505 36.1387 96.3157 38.1109C101.081 40.0831 105.154 43.4248 108.019 47.7129C110.884 52.0011 112.412 57.0429 112.41 62.2C112.402 69.0978 109.662 75.7116 104.789 80.5938C99.9163 85.4759 93.3078 88.2289 86.41 88.25Z" fill="#888888"/>
<path d="M99.35 54.17C99.3533 53.9218 99.282 53.6782 99.1454 53.4709C99.0087 53.2636 98.8131 53.1021 98.5836 53.0073C98.3541 52.9125 98.1014 52.8887 97.8583 52.9392C97.6152 52.9896 97.3928 53.1118 97.22 53.29L82.0399 68.46L75.64 62.06C75.5246 61.9446 75.3873 61.8534 75.2362 61.7916C75.0851 61.7298 74.9232 61.6986 74.76 61.7C74.4311 61.7015 74.1157 61.8306 73.88 62.06C73.7636 62.1761 73.6712 62.3141 73.6081 62.4659C73.5451 62.6178 73.5127 62.7806 73.5127 62.945C73.5127 63.1094 73.5451 63.2722 73.6081 63.4241C73.6712 63.576 73.7636 63.7139 73.88 63.83L81.16 71.11C81.3994 71.3358 81.7159 71.4615 82.0449 71.4615C82.3739 71.4615 82.6905 71.3358 82.9299 71.11L98.9299 55.05C99.0567 54.9401 99.1594 54.8052 99.2317 54.6538C99.3039 54.5024 99.3442 54.3377 99.35 54.17Z" fill="#80C242"/>
</svg>
